<mxfile host="app.diagrams.net" agent="Mozilla/5.0 (Windows NT 10.0; Win64; x64) AppleWebKit/537.36 (KHTML, like Gecko) Chrome/131.0.0.0 Safari/537.36" version="26.0.6">
  <diagram name="Page-1" id="PChvw4mhDZrPEs35G91S">
    <mxGraphModel grid="1" page="1" gridSize="10" guides="1" tooltips="1" connect="1" arrows="1" fold="1" pageScale="1" pageWidth="827" pageHeight="1169" math="0" shadow="0">
      <root>
        <mxCell id="0" />
        <mxCell id="1" parent="0" />
        <mxCell id="k4reumMpnSbtYzHfetUF-17" value="Serviço video-processor" style="shape=umlLifeline;perimeter=lifelinePerimeter;whiteSpace=wrap;html=1;container=0;dropTarget=0;collapsible=0;recursiveResize=0;outlineConnect=0;portConstraint=eastwest;newEdgeStyle={&quot;edgeStyle&quot;:&quot;elbowEdgeStyle&quot;,&quot;elbow&quot;:&quot;vertical&quot;,&quot;curved&quot;:0,&quot;rounded&quot;:0};" vertex="1" parent="1">
          <mxGeometry x="1200" y="40.25" width="100" height="1039.75" as="geometry" />
        </mxCell>
        <mxCell id="k4reumMpnSbtYzHfetUF-18" value="" style="html=1;points=[];perimeter=orthogonalPerimeter;outlineConnect=0;targetShapes=umlLifeline;portConstraint=eastwest;newEdgeStyle={&quot;edgeStyle&quot;:&quot;elbowEdgeStyle&quot;,&quot;elbow&quot;:&quot;vertical&quot;,&quot;curved&quot;:0,&quot;rounded&quot;:0};" vertex="1" parent="1">
          <mxGeometry x="1245" y="410.25" width="10" height="209.75" as="geometry" />
        </mxCell>
        <mxCell id="k4reumMpnSbtYzHfetUF-1" value="Usuário" style="shape=umlLifeline;perimeter=lifelinePerimeter;whiteSpace=wrap;html=1;container=0;dropTarget=0;collapsible=0;recursiveResize=0;outlineConnect=0;portConstraint=eastwest;newEdgeStyle={&quot;edgeStyle&quot;:&quot;elbowEdgeStyle&quot;,&quot;elbow&quot;:&quot;vertical&quot;,&quot;curved&quot;:0,&quot;rounded&quot;:0};" vertex="1" parent="1">
          <mxGeometry x="40" y="40" width="100" height="1040" as="geometry" />
        </mxCell>
        <mxCell id="k4reumMpnSbtYzHfetUF-2" value="" style="html=1;points=[];perimeter=orthogonalPerimeter;outlineConnect=0;targetShapes=umlLifeline;portConstraint=eastwest;newEdgeStyle={&quot;edgeStyle&quot;:&quot;elbowEdgeStyle&quot;,&quot;elbow&quot;:&quot;vertical&quot;,&quot;curved&quot;:0,&quot;rounded&quot;:0};" vertex="1" parent="k4reumMpnSbtYzHfetUF-1">
          <mxGeometry x="45" y="70" width="10" height="770" as="geometry" />
        </mxCell>
        <mxCell id="k4reumMpnSbtYzHfetUF-3" value="dispatch" style="html=1;verticalAlign=bottom;startArrow=oval;endArrow=block;startSize=8;edgeStyle=elbowEdgeStyle;elbow=vertical;curved=0;rounded=0;" edge="1" parent="k4reumMpnSbtYzHfetUF-1" target="k4reumMpnSbtYzHfetUF-2">
          <mxGeometry relative="1" as="geometry">
            <mxPoint x="-15" y="70" as="sourcePoint" />
          </mxGeometry>
        </mxCell>
        <mxCell id="k4reumMpnSbtYzHfetUF-5" value="Serviço auth" style="shape=umlLifeline;perimeter=lifelinePerimeter;whiteSpace=wrap;html=1;container=0;dropTarget=0;collapsible=0;recursiveResize=0;outlineConnect=0;portConstraint=eastwest;newEdgeStyle={&quot;edgeStyle&quot;:&quot;elbowEdgeStyle&quot;,&quot;elbow&quot;:&quot;vertical&quot;,&quot;curved&quot;:0,&quot;rounded&quot;:0};" vertex="1" parent="1">
          <mxGeometry x="233" y="40" width="100" height="1040" as="geometry" />
        </mxCell>
        <mxCell id="k4reumMpnSbtYzHfetUF-6" value="" style="html=1;points=[];perimeter=orthogonalPerimeter;outlineConnect=0;targetShapes=umlLifeline;portConstraint=eastwest;newEdgeStyle={&quot;edgeStyle&quot;:&quot;elbowEdgeStyle&quot;,&quot;elbow&quot;:&quot;vertical&quot;,&quot;curved&quot;:0,&quot;rounded&quot;:0};" vertex="1" parent="k4reumMpnSbtYzHfetUF-5">
          <mxGeometry x="45" y="80" width="10" height="40" as="geometry" />
        </mxCell>
        <mxCell id="k4reumMpnSbtYzHfetUF-7" value="HTTP login" style="html=1;verticalAlign=bottom;endArrow=block;edgeStyle=elbowEdgeStyle;elbow=vertical;curved=0;rounded=0;" edge="1" parent="1" source="k4reumMpnSbtYzHfetUF-2" target="k4reumMpnSbtYzHfetUF-6">
          <mxGeometry relative="1" as="geometry">
            <mxPoint x="195" y="130" as="sourcePoint" />
            <Array as="points">
              <mxPoint x="180" y="120" />
            </Array>
          </mxGeometry>
        </mxCell>
        <mxCell id="k4reumMpnSbtYzHfetUF-8" value="return token JWT" style="html=1;verticalAlign=bottom;endArrow=open;dashed=1;endSize=8;edgeStyle=elbowEdgeStyle;elbow=vertical;curved=0;rounded=0;" edge="1" parent="1" source="k4reumMpnSbtYzHfetUF-6" target="k4reumMpnSbtYzHfetUF-2">
          <mxGeometry relative="1" as="geometry">
            <mxPoint x="195" y="205" as="targetPoint" />
            <Array as="points">
              <mxPoint x="180" y="160" />
            </Array>
          </mxGeometry>
        </mxCell>
        <mxCell id="k4reumMpnSbtYzHfetUF-11" value="Serviço upload" style="shape=umlLifeline;perimeter=lifelinePerimeter;whiteSpace=wrap;html=1;container=0;dropTarget=0;collapsible=0;recursiveResize=0;outlineConnect=0;portConstraint=eastwest;newEdgeStyle={&quot;edgeStyle&quot;:&quot;elbowEdgeStyle&quot;,&quot;elbow&quot;:&quot;vertical&quot;,&quot;curved&quot;:0,&quot;rounded&quot;:0};" vertex="1" parent="1">
          <mxGeometry x="427" y="40" width="93" height="1040" as="geometry" />
        </mxCell>
        <mxCell id="k4reumMpnSbtYzHfetUF-12" value="" style="html=1;points=[];perimeter=orthogonalPerimeter;outlineConnect=0;targetShapes=umlLifeline;portConstraint=eastwest;newEdgeStyle={&quot;edgeStyle&quot;:&quot;elbowEdgeStyle&quot;,&quot;elbow&quot;:&quot;vertical&quot;,&quot;curved&quot;:0,&quot;rounded&quot;:0};" vertex="1" parent="k4reumMpnSbtYzHfetUF-11">
          <mxGeometry x="42" y="220" width="10" height="150" as="geometry" />
        </mxCell>
        <mxCell id="k4reumMpnSbtYzHfetUF-45" value="" style="html=1;points=[];perimeter=orthogonalPerimeter;outlineConnect=0;targetShapes=umlLifeline;portConstraint=eastwest;newEdgeStyle={&quot;edgeStyle&quot;:&quot;elbowEdgeStyle&quot;,&quot;elbow&quot;:&quot;vertical&quot;,&quot;curved&quot;:0,&quot;rounded&quot;:0};" vertex="1" parent="k4reumMpnSbtYzHfetUF-11">
          <mxGeometry x="47" y="290" width="10" height="40" as="geometry" />
        </mxCell>
        <mxCell id="zq5PPrrIRg-gFn4_W6X6-1" value="" style="html=1;points=[];perimeter=orthogonalPerimeter;outlineConnect=0;targetShapes=umlLifeline;portConstraint=eastwest;newEdgeStyle={&quot;edgeStyle&quot;:&quot;elbowEdgeStyle&quot;,&quot;elbow&quot;:&quot;vertical&quot;,&quot;curved&quot;:0,&quot;rounded&quot;:0};" vertex="1" parent="k4reumMpnSbtYzHfetUF-11">
          <mxGeometry x="41.5" y="920" width="10" height="100" as="geometry" />
        </mxCell>
        <mxCell id="k4reumMpnSbtYzHfetUF-13" value="Fila de processamento" style="shape=umlLifeline;perimeter=lifelinePerimeter;whiteSpace=wrap;html=1;container=0;dropTarget=0;collapsible=0;recursiveResize=0;outlineConnect=0;portConstraint=eastwest;newEdgeStyle={&quot;edgeStyle&quot;:&quot;elbowEdgeStyle&quot;,&quot;elbow&quot;:&quot;vertical&quot;,&quot;curved&quot;:0,&quot;rounded&quot;:0};" vertex="1" parent="1">
          <mxGeometry x="813" y="40.25" width="100" height="1039.75" as="geometry" />
        </mxCell>
        <mxCell id="k4reumMpnSbtYzHfetUF-14" value="" style="html=1;points=[];perimeter=orthogonalPerimeter;outlineConnect=0;targetShapes=umlLifeline;portConstraint=eastwest;newEdgeStyle={&quot;edgeStyle&quot;:&quot;elbowEdgeStyle&quot;,&quot;elbow&quot;:&quot;vertical&quot;,&quot;curved&quot;:0,&quot;rounded&quot;:0};" vertex="1" parent="k4reumMpnSbtYzHfetUF-13">
          <mxGeometry x="45" y="329.75" width="10" height="40" as="geometry" />
        </mxCell>
        <mxCell id="k4reumMpnSbtYzHfetUF-15" value="Fila de retorno&amp;nbsp; de processamento" style="shape=umlLifeline;perimeter=lifelinePerimeter;whiteSpace=wrap;html=1;container=0;dropTarget=0;collapsible=0;recursiveResize=0;outlineConnect=0;portConstraint=eastwest;newEdgeStyle={&quot;edgeStyle&quot;:&quot;elbowEdgeStyle&quot;,&quot;elbow&quot;:&quot;vertical&quot;,&quot;curved&quot;:0,&quot;rounded&quot;:0};" vertex="1" parent="1">
          <mxGeometry x="1007" y="40.25" width="100" height="1039.75" as="geometry" />
        </mxCell>
        <mxCell id="k4reumMpnSbtYzHfetUF-27" value="" style="html=1;points=[];perimeter=orthogonalPerimeter;outlineConnect=0;targetShapes=umlLifeline;portConstraint=eastwest;newEdgeStyle={&quot;edgeStyle&quot;:&quot;elbowEdgeStyle&quot;,&quot;elbow&quot;:&quot;vertical&quot;,&quot;curved&quot;:0,&quot;rounded&quot;:0};" vertex="1" parent="k4reumMpnSbtYzHfetUF-15">
          <mxGeometry x="-538" y="609.75" width="10" height="30" as="geometry" />
        </mxCell>
        <mxCell id="k4reumMpnSbtYzHfetUF-32" value="" style="html=1;points=[];perimeter=orthogonalPerimeter;outlineConnect=0;targetShapes=umlLifeline;portConstraint=eastwest;newEdgeStyle={&quot;edgeStyle&quot;:&quot;elbowEdgeStyle&quot;,&quot;elbow&quot;:&quot;vertical&quot;,&quot;curved&quot;:0,&quot;rounded&quot;:0};" vertex="1" parent="k4reumMpnSbtYzHfetUF-15">
          <mxGeometry x="-538" y="699.75" width="10" height="30" as="geometry" />
        </mxCell>
        <mxCell id="k4reumMpnSbtYzHfetUF-36" value="" style="html=1;points=[];perimeter=orthogonalPerimeter;outlineConnect=0;targetShapes=umlLifeline;portConstraint=eastwest;newEdgeStyle={&quot;edgeStyle&quot;:&quot;elbowEdgeStyle&quot;,&quot;elbow&quot;:&quot;vertical&quot;,&quot;curved&quot;:0,&quot;rounded&quot;:0};" vertex="1" parent="k4reumMpnSbtYzHfetUF-15">
          <mxGeometry x="-538" y="799.75" width="10" height="30" as="geometry" />
        </mxCell>
        <mxCell id="k4reumMpnSbtYzHfetUF-16" value="" style="html=1;points=[];perimeter=orthogonalPerimeter;outlineConnect=0;targetShapes=umlLifeline;portConstraint=eastwest;newEdgeStyle={&quot;edgeStyle&quot;:&quot;elbowEdgeStyle&quot;,&quot;elbow&quot;:&quot;vertical&quot;,&quot;curved&quot;:0,&quot;rounded&quot;:0};" vertex="1" parent="k4reumMpnSbtYzHfetUF-15">
          <mxGeometry x="45" y="569.75" width="10" height="40" as="geometry" />
        </mxCell>
        <mxCell id="k4reumMpnSbtYzHfetUF-25" value="Enfileirar retorno do processamento" style="edgeStyle=elbowEdgeStyle;rounded=0;orthogonalLoop=1;jettySize=auto;html=1;elbow=vertical;curved=0;" edge="1" parent="k4reumMpnSbtYzHfetUF-15">
          <mxGeometry x="0.026" y="-10" relative="1" as="geometry">
            <mxPoint x="238" y="569.75" as="sourcePoint" />
            <mxPoint x="49.5" y="569.75" as="targetPoint" />
            <Array as="points">
              <mxPoint x="193" y="569.75" />
            </Array>
            <mxPoint as="offset" />
          </mxGeometry>
        </mxCell>
        <mxCell id="k4reumMpnSbtYzHfetUF-29" value="Processar retorno do processamento" style="edgeStyle=elbowEdgeStyle;rounded=0;orthogonalLoop=1;jettySize=auto;html=1;elbow=vertical;curved=0;" edge="1" parent="k4reumMpnSbtYzHfetUF-15" source="k4reumMpnSbtYzHfetUF-16" target="k4reumMpnSbtYzHfetUF-27">
          <mxGeometry x="0.0278" y="-10" relative="1" as="geometry">
            <Array as="points">
              <mxPoint x="-372" y="609.75" />
            </Array>
            <mxPoint as="offset" />
          </mxGeometry>
        </mxCell>
        <mxCell id="k4reumMpnSbtYzHfetUF-34" value="Listar processamentos" style="edgeStyle=elbowEdgeStyle;rounded=0;orthogonalLoop=1;jettySize=auto;html=1;elbow=vertical;curved=0;" edge="1" parent="k4reumMpnSbtYzHfetUF-15" target="k4reumMpnSbtYzHfetUF-32">
          <mxGeometry y="10" relative="1" as="geometry">
            <mxPoint x="-912" y="699.75" as="sourcePoint" />
            <Array as="points">
              <mxPoint x="-827" y="699.75" />
            </Array>
            <mxPoint as="offset" />
          </mxGeometry>
        </mxCell>
        <mxCell id="k4reumMpnSbtYzHfetUF-35" value="return lista de processamentos" style="html=1;verticalAlign=bottom;endArrow=open;dashed=1;endSize=8;edgeStyle=elbowEdgeStyle;elbow=vertical;curved=0;rounded=0;" edge="1" parent="k4reumMpnSbtYzHfetUF-15" source="k4reumMpnSbtYzHfetUF-32">
          <mxGeometry relative="1" as="geometry">
            <mxPoint x="-912" y="729.75" as="targetPoint" />
            <Array as="points">
              <mxPoint x="-737" y="729.75" />
            </Array>
            <mxPoint x="-552" y="529.75" as="sourcePoint" />
          </mxGeometry>
        </mxCell>
        <mxCell id="k4reumMpnSbtYzHfetUF-37" value="Download do resultado de um processamento (imagens ZIP)" style="edgeStyle=elbowEdgeStyle;rounded=0;orthogonalLoop=1;jettySize=auto;html=1;elbow=vertical;curved=0;" edge="1" parent="k4reumMpnSbtYzHfetUF-15" target="k4reumMpnSbtYzHfetUF-36">
          <mxGeometry y="10" relative="1" as="geometry">
            <mxPoint x="-912" y="799.75" as="sourcePoint" />
            <Array as="points">
              <mxPoint x="-737" y="799.75" />
            </Array>
            <mxPoint as="offset" />
          </mxGeometry>
        </mxCell>
        <mxCell id="k4reumMpnSbtYzHfetUF-38" value="return imagens ZIP" style="html=1;verticalAlign=bottom;endArrow=open;dashed=1;endSize=8;edgeStyle=elbowEdgeStyle;elbow=vertical;curved=0;rounded=0;" edge="1" parent="k4reumMpnSbtYzHfetUF-15" source="k4reumMpnSbtYzHfetUF-36">
          <mxGeometry relative="1" as="geometry">
            <mxPoint x="-912" y="829.75" as="targetPoint" />
            <Array as="points">
              <mxPoint x="-567" y="829.75" />
            </Array>
            <mxPoint x="-552" y="739.75" as="sourcePoint" />
          </mxGeometry>
        </mxCell>
        <mxCell id="k4reumMpnSbtYzHfetUF-20" value="Upload de um vídeo" style="edgeStyle=elbowEdgeStyle;rounded=0;orthogonalLoop=1;jettySize=auto;html=1;elbow=vertical;curved=0;" edge="1" parent="1" source="k4reumMpnSbtYzHfetUF-2" target="k4reumMpnSbtYzHfetUF-11">
          <mxGeometry x="-0.0127" y="10" relative="1" as="geometry">
            <Array as="points">
              <mxPoint x="190" y="260" />
            </Array>
            <mxPoint as="offset" />
          </mxGeometry>
        </mxCell>
        <mxCell id="k4reumMpnSbtYzHfetUF-23" value="Enfileirar processamento" style="edgeStyle=elbowEdgeStyle;rounded=0;orthogonalLoop=1;jettySize=auto;html=1;elbow=horizontal;curved=0;" edge="1" parent="1" source="k4reumMpnSbtYzHfetUF-45" target="k4reumMpnSbtYzHfetUF-14">
          <mxGeometry y="10" relative="1" as="geometry">
            <Array as="points">
              <mxPoint x="820" y="370" />
            </Array>
            <mxPoint as="offset" />
          </mxGeometry>
        </mxCell>
        <mxCell id="k4reumMpnSbtYzHfetUF-24" value="Processar vídeo" style="edgeStyle=elbowEdgeStyle;rounded=0;orthogonalLoop=1;jettySize=auto;html=1;elbow=vertical;curved=0;" edge="1" parent="1" source="k4reumMpnSbtYzHfetUF-14" target="k4reumMpnSbtYzHfetUF-18">
          <mxGeometry x="-0.012" y="10" relative="1" as="geometry">
            <Array as="points">
              <mxPoint x="1060" y="410" />
            </Array>
            <mxPoint as="offset" />
          </mxGeometry>
        </mxCell>
        <mxCell id="k4reumMpnSbtYzHfetUF-33" value="return código do processamento" style="html=1;verticalAlign=bottom;endArrow=open;dashed=1;endSize=8;edgeStyle=elbowEdgeStyle;elbow=vertical;curved=0;rounded=0;" edge="1" parent="1" source="k4reumMpnSbtYzHfetUF-12" target="k4reumMpnSbtYzHfetUF-2">
          <mxGeometry relative="1" as="geometry">
            <mxPoint x="100" y="320" as="targetPoint" />
            <Array as="points">
              <mxPoint x="450" y="410" />
            </Array>
            <mxPoint x="275" y="170" as="sourcePoint" />
          </mxGeometry>
        </mxCell>
        <mxCell id="k4reumMpnSbtYzHfetUF-41" value="AWS S3" style="shape=umlLifeline;perimeter=lifelinePerimeter;whiteSpace=wrap;html=1;container=0;dropTarget=0;collapsible=0;recursiveResize=0;outlineConnect=0;portConstraint=eastwest;newEdgeStyle={&quot;edgeStyle&quot;:&quot;elbowEdgeStyle&quot;,&quot;elbow&quot;:&quot;vertical&quot;,&quot;curved&quot;:0,&quot;rounded&quot;:0};" vertex="1" parent="1">
          <mxGeometry x="620" y="40" width="100" height="1040" as="geometry" />
        </mxCell>
        <mxCell id="k4reumMpnSbtYzHfetUF-42" value="" style="html=1;points=[];perimeter=orthogonalPerimeter;outlineConnect=0;targetShapes=umlLifeline;portConstraint=eastwest;newEdgeStyle={&quot;edgeStyle&quot;:&quot;elbowEdgeStyle&quot;,&quot;elbow&quot;:&quot;vertical&quot;,&quot;curved&quot;:0,&quot;rounded&quot;:0};" vertex="1" parent="k4reumMpnSbtYzHfetUF-41">
          <mxGeometry x="45" y="250" width="10" height="40" as="geometry" />
        </mxCell>
        <mxCell id="k4reumMpnSbtYzHfetUF-47" value="" style="html=1;points=[];perimeter=orthogonalPerimeter;outlineConnect=0;targetShapes=umlLifeline;portConstraint=eastwest;newEdgeStyle={&quot;edgeStyle&quot;:&quot;elbowEdgeStyle&quot;,&quot;elbow&quot;:&quot;vertical&quot;,&quot;curved&quot;:0,&quot;rounded&quot;:0};" vertex="1" parent="k4reumMpnSbtYzHfetUF-41">
          <mxGeometry x="45" y="410" width="10" height="40" as="geometry" />
        </mxCell>
        <mxCell id="k4reumMpnSbtYzHfetUF-53" value="" style="html=1;points=[];perimeter=orthogonalPerimeter;outlineConnect=0;targetShapes=umlLifeline;portConstraint=eastwest;newEdgeStyle={&quot;edgeStyle&quot;:&quot;elbowEdgeStyle&quot;,&quot;elbow&quot;:&quot;vertical&quot;,&quot;curved&quot;:0,&quot;rounded&quot;:0};" vertex="1" parent="k4reumMpnSbtYzHfetUF-41">
          <mxGeometry x="45" y="490.25" width="10" height="40" as="geometry" />
        </mxCell>
        <mxCell id="zq5PPrrIRg-gFn4_W6X6-4" value="" style="html=1;points=[];perimeter=orthogonalPerimeter;outlineConnect=0;targetShapes=umlLifeline;portConstraint=eastwest;newEdgeStyle={&quot;edgeStyle&quot;:&quot;elbowEdgeStyle&quot;,&quot;elbow&quot;:&quot;vertical&quot;,&quot;curved&quot;:0,&quot;rounded&quot;:0};" vertex="1" parent="k4reumMpnSbtYzHfetUF-41">
          <mxGeometry x="45" y="980" width="10" height="30" as="geometry" />
        </mxCell>
        <mxCell id="k4reumMpnSbtYzHfetUF-43" value="Salvar o vídeo" style="edgeStyle=elbowEdgeStyle;rounded=0;orthogonalLoop=1;jettySize=auto;html=1;elbow=vertical;curved=0;" edge="1" parent="1" source="k4reumMpnSbtYzHfetUF-12" target="k4reumMpnSbtYzHfetUF-42">
          <mxGeometry x="0.071" y="10" relative="1" as="geometry">
            <Array as="points">
              <mxPoint x="580" y="290" />
            </Array>
            <mxPoint as="offset" />
          </mxGeometry>
        </mxCell>
        <mxCell id="k4reumMpnSbtYzHfetUF-44" value="return" style="html=1;verticalAlign=bottom;endArrow=open;dashed=1;endSize=8;edgeStyle=elbowEdgeStyle;elbow=vertical;curved=0;rounded=0;" edge="1" parent="1" source="k4reumMpnSbtYzHfetUF-42" target="k4reumMpnSbtYzHfetUF-12">
          <mxGeometry relative="1" as="geometry">
            <mxPoint x="105" y="330" as="targetPoint" />
            <Array as="points">
              <mxPoint x="540" y="330" />
            </Array>
            <mxPoint x="482" y="330" as="sourcePoint" />
          </mxGeometry>
        </mxCell>
        <mxCell id="k4reumMpnSbtYzHfetUF-48" value="Carregar o vídeo" style="edgeStyle=elbowEdgeStyle;rounded=0;orthogonalLoop=1;jettySize=auto;html=1;elbow=vertical;curved=0;" edge="1" parent="1" source="k4reumMpnSbtYzHfetUF-18" target="k4reumMpnSbtYzHfetUF-47">
          <mxGeometry y="-10" relative="1" as="geometry">
            <Array as="points">
              <mxPoint x="960" y="450" />
            </Array>
            <mxPoint as="offset" />
          </mxGeometry>
        </mxCell>
        <mxCell id="k4reumMpnSbtYzHfetUF-51" value="return vídeo" style="html=1;verticalAlign=bottom;endArrow=open;dashed=1;endSize=8;edgeStyle=elbowEdgeStyle;elbow=vertical;curved=0;rounded=0;" edge="1" parent="1" source="k4reumMpnSbtYzHfetUF-47" target="k4reumMpnSbtYzHfetUF-52">
          <mxGeometry relative="1" as="geometry">
            <mxPoint x="1240" y="490" as="targetPoint" />
            <Array as="points">
              <mxPoint x="960" y="490" />
            </Array>
            <mxPoint x="675" y="490" as="sourcePoint" />
          </mxGeometry>
        </mxCell>
        <mxCell id="k4reumMpnSbtYzHfetUF-54" value="Salvar imagens ZIP" style="edgeStyle=elbowEdgeStyle;rounded=0;orthogonalLoop=1;jettySize=auto;html=1;elbow=vertical;curved=0;" edge="1" parent="1" source="k4reumMpnSbtYzHfetUF-52" target="k4reumMpnSbtYzHfetUF-53">
          <mxGeometry relative="1" as="geometry">
            <mxPoint x="710" y="530" as="targetPoint" />
            <Array as="points">
              <mxPoint x="970" y="530" />
            </Array>
          </mxGeometry>
        </mxCell>
        <mxCell id="k4reumMpnSbtYzHfetUF-52" value="" style="html=1;points=[];perimeter=orthogonalPerimeter;outlineConnect=0;targetShapes=umlLifeline;portConstraint=eastwest;newEdgeStyle={&quot;edgeStyle&quot;:&quot;elbowEdgeStyle&quot;,&quot;elbow&quot;:&quot;vertical&quot;,&quot;curved&quot;:0,&quot;rounded&quot;:0};" vertex="1" parent="1">
          <mxGeometry x="1240" y="490.25" width="10" height="40" as="geometry" />
        </mxCell>
        <mxCell id="k4reumMpnSbtYzHfetUF-55" value="return" style="html=1;verticalAlign=bottom;endArrow=open;dashed=1;endSize=8;edgeStyle=elbowEdgeStyle;elbow=vertical;curved=0;rounded=0;" edge="1" parent="1" source="k4reumMpnSbtYzHfetUF-53">
          <mxGeometry relative="1" as="geometry">
            <mxPoint x="1245" y="570.25" as="targetPoint" />
            <Array as="points">
              <mxPoint x="950" y="570" />
            </Array>
            <mxPoint x="685" y="500" as="sourcePoint" />
          </mxGeometry>
        </mxCell>
        <mxCell id="k4reumMpnSbtYzHfetUF-57" value="" style="html=1;points=[];perimeter=orthogonalPerimeter;outlineConnect=0;targetShapes=umlLifeline;portConstraint=eastwest;newEdgeStyle={&quot;edgeStyle&quot;:&quot;elbowEdgeStyle&quot;,&quot;elbow&quot;:&quot;vertical&quot;,&quot;curved&quot;:0,&quot;rounded&quot;:0};" vertex="1" parent="1">
          <mxGeometry x="1240" y="570" width="10" height="40" as="geometry" />
        </mxCell>
        <mxCell id="zq5PPrrIRg-gFn4_W6X6-2" value="dispatch a cada 24h" style="html=1;verticalAlign=bottom;startArrow=oval;endArrow=block;startSize=8;edgeStyle=elbowEdgeStyle;elbow=vertical;curved=0;rounded=0;" edge="1" parent="1">
          <mxGeometry relative="1" as="geometry">
            <mxPoint x="410" y="960" as="sourcePoint" />
            <mxPoint x="470" y="960" as="targetPoint" />
          </mxGeometry>
        </mxCell>
        <mxCell id="zq5PPrrIRg-gFn4_W6X6-5" style="edgeStyle=elbowEdgeStyle;rounded=0;orthogonalLoop=1;jettySize=auto;html=1;elbow=vertical;curved=0;" edge="1" parent="1" source="zq5PPrrIRg-gFn4_W6X6-1" target="k4reumMpnSbtYzHfetUF-41">
          <mxGeometry relative="1" as="geometry">
            <Array as="points">
              <mxPoint x="549" y="1020" />
            </Array>
          </mxGeometry>
        </mxCell>
        <mxCell id="zq5PPrrIRg-gFn4_W6X6-6" value="Apagar imagens ZIP com TTL &amp;gt; 24h" style="edgeLabel;html=1;align=center;verticalAlign=middle;resizable=0;points=[];" connectable="0" vertex="1" parent="zq5PPrrIRg-gFn4_W6X6-5">
          <mxGeometry x="0.0838" y="1" relative="1" as="geometry">
            <mxPoint x="-12" y="-9" as="offset" />
          </mxGeometry>
        </mxCell>
        <mxCell id="zq5PPrrIRg-gFn4_W6X6-9" style="edgeStyle=elbowEdgeStyle;rounded=0;orthogonalLoop=1;jettySize=auto;html=1;elbow=vertical;curved=0;dashed=1;" edge="1" parent="1" source="zq5PPrrIRg-gFn4_W6X6-4" target="zq5PPrrIRg-gFn4_W6X6-1">
          <mxGeometry relative="1" as="geometry">
            <Array as="points">
              <mxPoint x="572" y="1050" />
            </Array>
          </mxGeometry>
        </mxCell>
        <mxCell id="zq5PPrrIRg-gFn4_W6X6-10" value="return" style="edgeLabel;html=1;align=center;verticalAlign=middle;resizable=0;points=[];" connectable="0" vertex="1" parent="zq5PPrrIRg-gFn4_W6X6-9">
          <mxGeometry x="-0.3987" y="-3" relative="1" as="geometry">
            <mxPoint x="-29" as="offset" />
          </mxGeometry>
        </mxCell>
      </root>
    </mxGraphModel>
  </diagram>
</mxfile>
